<?xml version="1.0" encoding="UTF-8" standalone="no"?>
<!-- Created with Inkscape (http://www.inkscape.org/) -->

<svg
   width="930"
   height="930"
   viewBox="0 0 930 930"
   version="1.1"
   id="svg5"
   inkscape:version="1.1.2 (b8e25be833, 2022-02-05)"
   sodipodi:docname="shield.svg"
   xmlns:inkscape="http://www.inkscape.org/namespaces/inkscape"
   xmlns:sodipodi="http://sodipodi.sourceforge.net/DTD/sodipodi-0.dtd"
   xmlns="http://www.w3.org/2000/svg"
   xmlns:svg="http://www.w3.org/2000/svg">
  <sodipodi:namedview
     id="namedview7"
     pagecolor="#ffffff"
     bordercolor="#666666"
     borderopacity="1.0"
     inkscape:pageshadow="2"
     inkscape:pageopacity="0.0"
     inkscape:pagecheckerboard="0"
     inkscape:document-units="px"
     showgrid="false"
     width="1080px"
     inkscape:zoom="0.7530519"
     inkscape:cx="463.44748"
     inkscape:cy="459.46369"
     inkscape:window-width="1920"
     inkscape:window-height="1009"
     inkscape:window-x="1912"
     inkscape:window-y="-11"
     inkscape:window-maximized="1"
     inkscape:current-layer="layer1" />
  <defs
     id="defs2" />
  <g
     inkscape:label="Capa 1"
     inkscape:groupmode="layer"
     id="layer1">
    <g
       id="g2206"
       transform="translate(-619.45244,-63.913653)">
      <path
         style="fill:#0075cd;stroke-width:1.39357"
         d="m 1037.9703,958.71155 c -4.75,-3.04198 -6.2871,-5.08478 -2.0903,-2.77795 3.1974,1.75751 8.2064,5.63098 7.3162,5.65762 -0.3832,0.0111 -2.7349,-1.28439 -5.2259,-2.87967 z m 45.6393,-10.58856 c 1.1497,-0.42563 3.031,-1.47355 4.1807,-2.32872 1.8165,-1.35111 1.8398,-1.23529 0.1778,0.8839 -1.052,1.34131 -2.9333,2.38923 -4.1807,2.32872 -1.8973,-0.092 -1.9264,-0.23654 -0.1778,-0.8839 z m 62.7105,-0.9258 c 0,-0.28937 1.0974,-1.38681 2.4387,-2.43874 2.2103,-1.73342 2.2596,-1.68412 0.5262,0.52616 -1.8205,2.32133 -2.9649,3.05954 -2.9649,1.91258 z m -136.7473,-7.48685 c -1.7334,-2.21028 -1.6841,-2.25957 0.5262,-0.52616 1.3413,1.05194 2.4387,2.14937 2.4387,2.43875 0,1.14696 -1.1444,0.40874 -2.9649,-1.91259 z m 55.7427,-2.78713 c -1.7334,-2.21028 -1.6841,-2.25957 0.5261,-0.52616 1.3413,1.05193 2.4388,2.14937 2.4388,2.43874 0,1.14696 -1.1444,0.40875 -2.9649,-1.91258 z m 35.0169,0.55769 c 0,-0.32204 1.645,-1.66336 3.6555,-2.98072 2.0105,-1.31733 3.2298,-1.70639 2.7095,-0.86454 -0.9942,1.60872 -6.365,4.85334 -6.365,3.84526 z m -53.1333,-11.70623 c -1.7334,-2.21028 -1.6841,-2.25957 0.5262,-0.52615 1.3413,1.05193 2.4387,2.14937 2.4387,2.43874 0,1.14696 -1.1444,0.40875 -2.9649,-1.91259 z m -59.92334,-1.39356 c -1.73342,-2.21028 -1.68413,-2.25957 0.52615,-0.52616 1.34131,1.05194 2.43874,2.14937 2.43874,2.43874 0,1.14696 -1.14438,0.40875 -2.96489,-1.91258 z m 92.80694,0.69431 c -3.4926,-1.90939 -55.9785,-36.64184 -66.1514,-43.77553 -21.71918,-15.23047 -47.72554,-36.55607 -78.67586,-64.51533 -13.47919,-12.17657 -47.54144,-48.48631 -57.46319,-61.25472 l -9.11223,-11.72664 5.97222,-4.99616 c 18.30284,-15.31156 48.53709,-37.4034 93.98813,-68.6761 13.02985,-8.96522 25.57195,-17.64114 27.87133,-19.27979 6.4003,-4.56121 58.5243,-38.448 76.0309,-49.42909 8.5535,-5.36523 17.5215,-11.03888 19.9288,-12.60809 14.8002,-9.64728 97.6702,-57.76702 99.4842,-57.76702 0.4074,0 3.9456,-1.97614 7.8627,-4.3914 10.1097,-6.23363 53.4169,-28.10778 78.8906,-39.8471 44.7929,-20.64231 92.5075,-39.88547 125.421,-50.58195 4.2155,-1.37 8.8216,-2.94802 10.2357,-3.50671 2.399,-0.94784 2.5091,-0.37299 1.6446,8.59062 -3.0946,32.08842 -10.504,75.46942 -16.9931,99.4915 -4.0697,15.06553 -19.0217,59.48546 -24.8614,73.85903 -8.4828,20.87889 -20.0681,44.9893 -27.4546,57.13623 -3.4957,5.74846 -8.1021,13.58727 -10.2366,17.41958 -4.5599,8.18694 -22.2461,33.91311 -32.6146,47.441 -35.3451,46.11484 -82.8895,93.18903 -132.4456,131.13577 -20.0962,15.38832 -35.0157,25.6796 -64.8008,44.69869 -20.9401,13.37116 -23.1563,14.42264 -26.5208,12.58321 z m 108.0444,-7.14313 c 0,-0.28937 1.0974,-1.3868 2.4387,-2.43874 2.2103,-1.73341 2.2596,-1.68412 0.5262,0.52616 -1.8205,2.32133 -2.9649,3.05954 -2.9649,1.91258 z m -216.18057,-4.69972 c -1.73342,-2.21028 -1.68413,-2.25957 0.52615,-0.52615 1.34131,1.05193 2.43874,2.14937 2.43874,2.43874 0,1.14696 -1.14438,0.40875 -2.96489,-1.91259 z m -5.57427,-4.1807 c -1.73342,-2.21028 -1.68413,-2.25957 0.52615,-0.52615 1.34131,1.05193 2.43875,2.14937 2.43875,2.43874 0,1.14696 -1.14439,0.40875 -2.9649,-1.91259 z m 175.76714,1.91259 c 0,-0.28937 1.0974,-1.38681 2.4387,-2.43874 2.2103,-1.73342 2.2596,-1.68413 0.5262,0.52615 -1.8205,2.32134 -2.9649,3.05955 -2.9649,1.91259 z m 62.7105,-5.57427 c 0,-0.28937 1.0974,-1.3868 2.4387,-2.43874 2.2103,-1.73341 2.2596,-1.68412 0.5262,0.52616 -1.8205,2.32133 -2.9649,3.05955 -2.9649,1.91258 z m -250.94745,-6.09328 -3.37844,-3.83231 3.83231,3.37844 c 3.58187,3.15767 4.47138,4.28618 3.37843,4.28618 -0.24961,0 -1.97415,-1.72454 -3.8323,-3.83231 z m 260.70245,-2.43874 c 1.8001,-1.91616 3.5865,-3.48392 3.9697,-3.48392 0.3832,0 -0.776,1.56776 -2.5762,3.48392 -1.8001,1.91615 -3.5865,3.48391 -3.9697,3.48391 -0.3833,0 0.776,-1.56776 2.5762,-3.48391 z m -211.9999,-1.74196 c -1.7334,-2.21028 -1.6841,-2.25957 0.5261,-0.52616 1.3413,1.05194 2.4388,2.14937 2.4388,2.43875 0,1.14696 -1.1444,0.40874 -2.9649,-1.91259 z m -61.31694,-5.57427 c -1.73341,-2.21028 -1.68412,-2.25957 0.52616,-0.52615 1.34131,1.05193 2.43874,2.14937 2.43874,2.43874 0,1.14696 -1.14438,0.40875 -2.9649,-1.91259 z m 51.56196,-1.39356 c -1.73341,-2.21028 -1.68412,-2.25957 0.52616,-0.52616 2.32133,1.82051 3.05955,2.9649 1.91258,2.9649 -0.28937,0 -1.3868,-1.09744 -2.43874,-2.43874 z m 234.99368,-1.74196 c 1.3873,-1.53293 2.8359,-2.78714 3.2192,-2.78714 0.3832,0 -0.4383,1.25421 -1.8256,2.78714 -1.3873,1.53292 -2.8359,2.78713 -3.2191,2.78713 -0.3832,0 0.4383,-1.25421 1.8255,-2.78713 z m -50.8651,-0.52616 c 0,-0.28937 1.0974,-1.3868 2.4387,-2.43874 2.2103,-1.73341 2.2596,-1.68412 0.5262,0.52616 -1.8205,2.32133 -2.9649,3.05954 -2.9649,1.91258 z m -246.83907,-6.09328 c -1.73341,-2.21028 -1.68412,-2.25957 0.52616,-0.52616 1.3413,1.05194 2.43874,2.14937 2.43874,2.43874 0,1.14696 -1.14439,0.40875 -2.9649,-1.91258 z m 303.97527,1.91258 c 0,-0.28937 1.0974,-1.3868 2.4387,-2.43874 2.2103,-1.73341 2.2596,-1.68412 0.5262,0.52616 -1.8205,2.32133 -2.9649,3.05954 -2.9649,1.91258 z m -256.59401,-4.69972 c -1.73341,-2.21028 -1.68412,-2.25957 0.52616,-0.52615 1.3413,1.05193 2.43874,2.14937 2.43874,2.43874 0,1.14696 -1.14438,0.40875 -2.9649,-1.91259 z m -53.60695,-2.09035 -2.65473,-3.13552 3.13553,2.65473 c 1.72454,1.46009 3.13552,2.87108 3.13552,3.13552 0,1.11521 -1.12153,0.29189 -3.61632,-2.65473 z m 48.03269,-2.09035 c -1.73342,-2.21028 -1.68413,-2.25957 0.52615,-0.52615 2.32133,1.82051 3.05955,2.9649 1.91259,2.9649 -0.28938,0 -1.38681,-1.09744 -2.43874,-2.43875 z m 274.01357,-1.74195 c 1.3873,-1.53293 2.8359,-2.78714 3.2191,-2.78714 0.3833,0 -0.4383,1.25421 -1.8255,2.78714 -1.3873,1.53292 -2.8359,2.78713 -3.2191,2.78713 -0.3833,0 0.4382,-1.25421 1.8255,-2.78713 z m -333.75917,-6.27105 c -3.38501,-3.44908 -5.84102,-6.27105 -5.45779,-6.27105 0.38323,0 3.46634,2.82197 6.85136,6.27105 3.38501,3.44907 5.84102,6.27105 5.45779,6.27105 -0.38323,0 -3.46635,-2.82198 -6.85136,-6.27105 z m 52.17107,1.74195 -4.09303,-4.52909 4.5291,4.09303 c 2.491,2.25117 4.52909,4.28926 4.52909,4.52909 0,1.07662 -1.14988,0.12877 -4.96516,-4.09303 z m 234.2068,1.74196 c 1.3873,-1.53292 2.8359,-2.78713 3.2192,-2.78713 0.3832,0 -0.4383,1.25421 -1.8256,2.78713 -1.3873,1.53293 -2.8359,2.78714 -3.2191,2.78714 -0.3832,0 0.4383,-1.25421 1.8255,-2.78714 z m 55.0459,-3.22319 c 0,-0.23983 2.0381,-2.27793 4.5291,-4.52909 l 4.5291,-4.09303 -4.093,4.52909 c -3.8153,4.22175 -4.9652,5.16964 -4.9652,4.09303 z m -41.807,-7.05793 c 0,-0.28937 1.0975,-1.38681 2.4388,-2.43874 2.2103,-1.73342 2.2595,-1.68412 0.5261,0.52616 -1.8205,2.32133 -2.9649,3.05954 -2.9649,1.91258 z m -313.7302,-6.09328 c -1.73341,-2.21028 -1.68412,-2.25957 0.52616,-0.52616 1.3413,1.05193 2.43874,2.14937 2.43874,2.43874 0,1.14696 -1.14438,0.40875 -2.9649,-1.91258 z m 45.9877,-2.78714 c -1.73342,-2.21028 -1.68413,-2.25957 0.52615,-0.52615 1.34131,1.05193 2.43874,2.14936 2.43874,2.43874 0,1.14696 -1.14438,0.40875 -2.96489,-1.91259 z m -57.69887,-9.05818 -8.31778,-8.70979 8.70979,8.31778 c 8.09066,7.7265 9.34749,9.1018 8.31778,9.1018 -0.21561,0 -4.13502,-3.91941 -8.70979,-8.70979 z m 340.77067,3.83231 c 1.8001,-1.91616 3.5865,-3.48392 3.9697,-3.48392 0.3832,0 -0.776,1.56776 -2.5762,3.48392 -1.8001,1.91615 -3.5865,3.48391 -3.9697,3.48391 -0.3833,0 0.776,-1.56776 2.5762,-3.48391 z m -297.57887,-8.01301 -6.91545,-7.31622 7.31622,6.91544 c 6.79836,6.42596 7.95532,7.717 6.91545,7.717 -0.22043,0 -3.51273,-3.2923 -7.31622,-7.31622 z m 310.81767,-3.83231 c 2.9937,-3.06584 5.7567,-5.57426 6.1399,-5.57426 0.3833,0 -1.7526,2.50842 -4.7463,5.57426 -2.9937,3.06585 -5.7567,5.57427 -6.1399,5.57427 -0.3832,0 1.7526,-2.50842 4.7463,-5.57427 z m 41.1103,4.97555 c 0,-0.38323 1.2542,-1.36802 2.7871,-2.18841 1.5329,-0.8204 2.7871,-1.17808 2.7871,-0.79485 0,0.38323 -1.2542,1.36802 -2.7871,2.18841 -1.5329,0.82039 -2.7871,1.17808 -2.7871,0.79485 z m 18.1163,-18.21443 c 2.6001,-2.68262 5.041,-4.87748 5.4242,-4.87748 0.3833,0 -1.4305,2.19486 -4.0306,4.87748 -2.6001,2.68262 -5.041,4.87748 -5.4242,4.87748 -0.3833,0 1.4305,-2.19486 4.0306,-4.87748 z m -437.65488,-4.52909 -4.80247,-5.22588 5.22588,4.80247 c 2.87423,2.64135 5.22587,4.993 5.22587,5.22588 0,1.06415 -1.17926,0.0616 -5.64928,-4.80247 z m 45.23352,0.69678 -2.65473,-3.13552 3.13553,2.65473 c 1.72454,1.46009 3.13552,2.87108 3.13552,3.13552 0,1.1152 -1.12152,0.29188 -3.61632,-2.65473 z m -10.39436,-10.45175 -4.80246,-5.22587 5.22587,4.80247 c 2.87423,2.64135 5.22587,4.99299 5.22587,5.22587 0,1.06416 -1.17926,0.0616 -5.64928,-4.80247 z m 377.03472,-5.92266 c 4.5508,-4.59876 8.5877,-8.36139 8.971,-8.36139 0.3832,0 -3.0266,3.76263 -7.5774,8.36139 -4.5508,4.59877 -8.5877,8.3614 -8.9709,8.3614 -0.3833,0 3.0266,-3.76263 7.5773,-8.3614 z m -425.10331,1.04518 -5.5087,-5.92266 5.92266,5.5087 c 3.25746,3.02978 5.92265,5.69498 5.92265,5.92266 0,1.05434 -1.21358,-6.8e-4 -6.33661,-5.5087 z m -8.42824,-9.75497 -2.65473,-3.13552 3.13553,2.65473 c 2.94661,2.49479 3.76993,3.61632 2.65473,3.61632 -0.26445,0 -1.67543,-1.41099 -3.13553,-3.13553 z m 39.74357,-3.48391 -3.37844,-3.83231 3.83231,3.37844 c 3.58187,3.15767 4.47139,4.28618 3.37844,4.28618 -0.24962,0 -1.97415,-1.72454 -3.83231,-3.83231 z m 449.53068,-1.74196 c 1.3873,-1.53292 2.8359,-2.78713 3.2191,-2.78713 0.3832,0 -0.4383,1.25421 -1.8255,2.78713 -1.3873,1.53292 -2.8359,2.78713 -3.2192,2.78713 -0.3832,0 0.4383,-1.25421 1.8256,-2.78713 z M 1287.0703,784.24 c 0,-0.23983 2.0381,-2.27793 4.5291,-4.52909 l 4.5291,-4.09303 -4.093,4.52909 c -3.8153,4.22175 -4.9652,5.16964 -4.9652,4.09303 z m -413.32485,-5.4866 -2.65473,-3.13552 3.13552,2.65473 c 2.94662,2.49479 3.76993,3.61632 2.65473,3.61632 -0.26444,0 -1.67543,-1.41099 -3.13552,-3.13553 z m 462.81225,-2.96395 c 1.3173,-2.01051 2.6586,-3.65549 2.9807,-3.65549 1.008,0 -2.2366,5.37076 -3.8453,6.36502 -0.8418,0.52029 -0.4528,-0.699 0.8646,-2.70953 z m -508.14852,-0.51997 c -1.73342,-2.21028 -1.68413,-2.25957 0.52615,-0.52615 2.32134,1.82051 3.05955,2.9649 1.91259,2.9649 -0.28938,0 -1.38681,-1.09744 -2.43874,-2.43875 z m 467.02252,-0.78445 c 0,-0.23983 2.0381,-2.27792 4.5291,-4.52909 l 4.5291,-4.09303 -4.093,4.52909 c -3.8153,4.22176 -4.9652,5.16965 -4.9652,4.09303 z m -471.85464,-5.48659 -2.65474,-3.13553 3.13553,2.65473 c 2.94661,2.49479 3.76993,3.61632 2.65473,3.61632 -0.26444,0 -1.67543,-1.41099 -3.13552,-3.13552 z m 40.41342,-1.39357 -2.65473,-3.13553 3.13553,2.65473 c 2.94661,2.4948 3.76993,3.61632 2.65473,3.61632 -0.26445,0 -1.67543,-1.41098 -3.13553,-3.13552 z m 478.82252,-0.17776 c 0,-0.28938 1.0974,-1.38681 2.4387,-2.43875 2.2103,-1.73341 2.2596,-1.68412 0.5262,0.52616 -1.8205,2.32133 -2.9649,3.05955 -2.9649,1.91259 z m -39.0199,-2.78714 c 0,-0.28937 1.0975,-1.38681 2.4388,-2.43874 2.2102,-1.73341 2.2595,-1.68412 0.5261,0.52616 -1.8205,2.32133 -2.9649,3.05954 -2.9649,1.91258 z m -444.72546,-3.30615 c -1.73342,-2.21028 -1.68413,-2.25957 0.52615,-0.52616 1.34131,1.05194 2.43875,2.14937 2.43875,2.43875 0,1.14696 -1.14439,0.40874 -2.9649,-1.91259 z m 450.29976,-3.66168 c 0,-0.28937 1.0974,-1.38681 2.4387,-2.43874 2.2103,-1.73342 2.2596,-1.68413 0.5262,0.52615 -1.8205,2.32134 -2.9649,3.05955 -2.9649,1.91259 z m -458.66116,-7.48685 c -1.73341,-2.21028 -1.68412,-2.25957 0.52616,-0.52616 1.3413,1.05194 2.43874,2.14937 2.43874,2.43874 0,1.14696 -1.14439,0.40875 -2.9649,-1.91258 z m -42.50171,-2.78714 c -4.12066,-5.65966 -5.3905,-8.54114 -1.99594,-4.52909 3.14117,3.71256 6.07116,8.3614 5.26987,8.3614 -0.26606,0 -1.73933,-1.72454 -3.27393,-3.83231 z m 508.82747,1.04518 c 1.3873,-1.53292 2.8359,-2.78713 3.2191,-2.78713 0.3832,0 -0.4383,1.25421 -1.8255,2.78713 -1.3873,1.53292 -2.8359,2.78713 -3.2191,2.78713 -0.3833,0 0.4382,-1.25421 1.8255,-2.78713 z m 41.1102,-1.91972 c 0,-0.28938 1.0974,-1.38681 2.4388,-2.43874 2.2102,-1.73342 2.2595,-1.68413 0.5261,0.52615 -1.8205,2.32133 -2.9649,3.05955 -2.9649,1.91259 z m -514.40379,-4.69972 c -1.73342,-2.21028 -1.68413,-2.25957 0.52615,-0.52616 2.32134,1.82052 3.05955,2.9649 1.91259,2.9649 -0.28937,0 -1.38681,-1.09743 -2.43874,-2.43874 z m 476.77749,1.91258 c 0,-0.28937 1.0975,-1.3868 2.4388,-2.43874 2.2102,-1.73341 2.2595,-1.68412 0.5261,0.52616 -1.8205,2.32133 -2.9649,3.05954 -2.9649,1.91258 z m 9.0582,-12.01594 c 1.3873,-1.53292 2.8359,-2.78713 3.2191,-2.78713 0.3832,0 -0.4383,1.25421 -1.8255,2.78713 -1.3873,1.53292 -2.8359,2.78713 -3.2191,2.78713 -0.3833,0 0.4382,-1.25421 1.8255,-2.78713 z m -537.21989,-8.3614 c -0.82039,-1.53292 -1.17807,-2.78713 -0.79484,-2.78713 0.38323,0 1.36801,1.25421 2.18841,2.78713 0.82039,1.53292 1.17808,2.78713 0.79484,2.78713 -0.38323,0 -1.36801,-1.25421 -2.18841,-2.78713 z m 542.09739,0.86741 c 0,-0.28937 1.0974,-1.38681 2.4387,-2.43874 2.2103,-1.73342 2.2596,-1.68412 0.5262,0.52616 -1.8205,2.32133 -2.9649,3.05954 -2.9649,1.91258 z m -506.04242,-4.69972 c -1.73342,-2.21028 -1.68413,-2.25957 0.52615,-0.52615 1.34131,1.05193 2.43874,2.14936 2.43874,2.43874 0,1.14696 -1.14438,0.40875 -2.96489,-1.91259 z m 519.97802,-16.20378 c 0,-0.28937 1.0975,-1.3868 2.4388,-2.43874 2.2103,-1.73341 2.2596,-1.68412 0.5261,0.52616 -1.8205,2.32133 -2.9649,3.05954 -2.9649,1.91258 z m -570.57584,-4.63961 c -0.75627,-1.98611 -0.5962,-2.14618 0.78011,-0.78012 0.95239,0.94531 1.38057,2.06978 0.95151,2.49885 -0.42906,0.42906 -1.20829,-0.34437 -1.73162,-1.71873 z m 57.74341,-10.68962 c 0,-0.28937 1.09744,-1.38681 2.43874,-2.43874 2.21028,-1.73342 2.25957,-1.68413 0.52616,0.52615 -1.82051,2.32134 -2.9649,3.05955 -2.9649,1.91259 z m -8.96859,-6.03318 c -0.75626,-1.98611 -0.59619,-2.14618 0.78012,-0.78012 0.95239,0.94531 1.38057,2.06978 0.9515,2.49885 -0.42906,0.42906 -1.20829,-0.34437 -1.73162,-1.71873 z m 22.20747,-4.5892 c 1.38729,-1.53292 2.83588,-2.78713 3.21912,-2.78713 0.38323,0 -0.43827,1.25421 -1.82555,2.78713 -1.38728,1.53293 -2.83588,2.78714 -3.21911,2.78714 -0.38323,0 0.43826,-1.25421 1.82554,-2.78714 z m -25.78098,-1.39356 c -0.82039,-1.53293 -1.17807,-2.78714 -0.79484,-2.78714 0.38323,0 1.36802,1.25421 2.18841,2.78714 0.82039,1.53292 1.17808,2.78713 0.79485,2.78713 -0.38323,0 -1.36802,-1.25421 -2.18842,-2.78713 z m 541.49023,-0.4085 c 0.5233,-1.37436 1.3025,-2.14779 1.7316,-1.71873 0.429,0.42907 9e-4,1.55354 -0.9515,2.49885 -1.3763,1.36606 -1.5364,1.20599 -0.7801,-0.78012 z m 37.6262,-4.1807 c 0.5234,-1.37436 1.3026,-2.14779 1.7317,-1.71873 0.429,0.42907 9e-4,1.55354 -0.9515,2.49885 -1.3763,1.36606 -1.5364,1.20599 -0.7802,-0.78012 z m -604.95471,-3.86492 c -0.50521,-0.81745 -0.61969,-1.78515 -0.2544,-2.15045 0.36529,-0.3653 1.03551,0.30353 1.48938,1.48628 0.9423,2.45562 0.13914,2.88755 -1.23498,0.66417 z m 69.53926,-3.77026 c 1.10262,-1.78407 9.25455,-7.81712 9.25455,-6.84906 0,0.34445 -2.3022,2.38224 -5.11599,4.52842 -2.81379,2.14619 -4.67614,3.19047 -4.13856,2.32064 z m -51.42289,-1.804 c -0.50521,-0.81745 -0.6197,-1.78516 -0.2544,-2.15046 0.36528,-0.36529 1.0355,0.30354 1.48937,1.48628 0.94231,2.45562 0.13922,2.88756 -1.23497,0.66418 z m -23.69063,-5.57427 c -0.50522,-0.81745 -0.6197,-1.78516 -0.25441,-2.15045 0.3653,-0.3653 1.03552,0.30353 1.48938,1.48628 0.94231,2.45562 0.13915,2.88755 -1.23497,0.66417 z m 87.1552,-1.80784 c 0,-0.38324 1.88132,-2.03641 4.1807,-3.67371 2.29939,-1.6373 4.1807,-2.66337 4.1807,-2.28014 0,0.38323 -1.88131,2.0364 -4.1807,3.67371 -2.29938,1.6373 -4.1807,2.66337 -4.1807,2.28014 z m 532.38507,-1.58336 c 0,-0.76646 0.6079,-2.33422 1.3509,-3.48392 0.743,-1.14969 1.3509,-1.46324 1.3509,-0.69678 0,0.76646 -0.6079,2.33422 -1.3509,3.48392 -0.743,1.14969 -1.3509,1.46324 -1.3509,0.69678 z m -32.7019,-5.28598 c 0.5233,-1.37436 1.3026,-2.14779 1.7316,-1.71873 0.4291,0.42907 9e-4,1.55354 -0.9515,2.49885 -1.3763,1.36606 -1.5364,1.20599 -0.7801,-0.78012 z m -488.53463,-1.51123 c 0,-0.28937 1.09743,-1.3868 2.43874,-2.43874 2.21028,-1.73341 2.25957,-1.68412 0.52615,0.52616 -1.82051,2.32133 -2.96489,3.05955 -2.96489,1.91258 z m 524.02363,-0.17062 c 0,-0.76647 0.6079,-2.33423 1.3509,-3.48392 0.743,-1.14969 1.3509,-1.46324 1.3509,-0.69678 0,0.76646 -0.6079,2.33422 -1.3509,3.48391 -0.743,1.1497 -1.3509,1.46325 -1.3509,0.69679 z m -608.16225,-4.23458 c -1.34476,-3.50439 -0.94806,-4.40862 0.69474,-1.58356 0.81341,1.39879 1.18537,2.83682 0.82657,3.19563 -0.3588,0.3588 -1.04339,-0.36664 -1.52131,-1.61207 z m -21.13296,-0.73562 c -0.50521,-0.81745 -0.61969,-1.78516 -0.2544,-2.15045 0.36529,-0.3653 1.03551,0.30353 1.48938,1.48628 0.9423,2.45561 0.13915,2.88755 -1.23498,0.66417 z m 120.60081,-6.00771 c 0,-0.28937 1.09743,-1.38681 2.43874,-2.43874 2.21028,-1.73341 2.25957,-1.68412 0.52615,0.52616 -1.82051,2.32133 -2.96489,3.05954 -2.96489,1.91258 z m -124.78151,-3.74726 c -0.50521,-0.81745 -0.61969,-1.78516 -0.2544,-2.15045 0.3653,-0.3653 1.03551,0.30353 1.48938,1.48628 0.9423,2.45562 0.13915,2.88755 -1.23498,0.66417 z m 639.05021,0.7895 c 0,-0.76646 0.6079,-2.33422 1.3509,-3.48392 0.743,-1.14969 1.3509,-1.46324 1.3509,-0.69678 0,0.76646 -0.6079,2.33423 -1.3509,3.48392 -0.743,1.14969 -1.3509,1.46324 -1.3509,0.69678 z M 741.6612,619.48455 c -1.34477,-3.50439 -0.94806,-4.40862 0.69474,-1.58357 0.81341,1.39879 1.18536,2.83683 0.82656,3.19563 -0.3588,0.3588 -1.04339,-0.36663 -1.5213,-1.61206 z m 33.21613,-2.12919 c -0.50522,-0.81745 -0.6197,-1.78516 -0.2544,-2.15046 0.36529,-0.36529 1.03551,0.30354 1.48937,1.48628 0.94231,2.45562 0.13915,2.88756 -1.23497,0.66418 z m 18.26326,-5.07306 c -0.75627,-1.98611 -0.5962,-2.14617 0.78011,-0.78012 0.95239,0.94532 1.38057,2.06978 0.95151,2.49885 -0.42906,0.42906 -1.20829,-0.34436 -1.73162,-1.71873 z m -57.05366,-8.12699 c -1.34476,-3.50438 -0.94806,-4.40861 0.69474,-1.58356 0.81341,1.39879 1.18536,2.83683 0.82656,3.19563 -0.3588,0.3588 -1.04338,-0.36664 -1.5213,-1.61207 z m -3.54606,-11.21078 c 0.0669,-1.62343 0.39708,-1.95364 0.84195,-0.84195 0.40256,1.00597 0.35305,2.20794 -0.11003,2.67101 -0.46307,0.46307 -0.79243,-0.36002 -0.73192,-1.82906 z m 703.68373,-9.63884 c 0,-0.76646 0.6079,-2.33422 1.3509,-3.48392 0.743,-1.14969 1.3509,-1.46324 1.3509,-0.69678 0,0.76646 -0.6079,2.33423 -1.3509,3.48392 -0.743,1.14969 -1.3509,1.46324 -1.3509,0.69678 z m -709.258,-9.87109 c 0.0669,-1.62344 0.39709,-1.95364 0.84195,-0.84195 0.40256,1.00597 0.35305,2.20794 -0.11002,2.67101 -0.46307,0.46306 -0.79244,-0.36002 -0.73193,-1.82906 z m 271.95066,-4.17428 c 1.32304,-1.38134 2.70554,-2.21156 3.07214,-1.84494 0.3666,0.36662 -0.7159,1.4968 -2.40555,2.51153 -2.93529,1.76275 -2.96498,1.73305 -0.66659,-0.66659 z m -274.73779,-5.58069 c 0.0669,-1.62343 0.39709,-1.95364 0.84195,-0.84195 0.40256,1.00598 0.35305,2.20794 -0.11002,2.67101 -0.46307,0.46307 -0.79244,-0.36001 -0.73193,-1.82906 z m 281.39043,1.68032 c 0,-0.28937 1.0974,-1.3868 2.4387,-2.43874 2.2103,-1.73341 2.2596,-1.68412 0.5262,0.52616 -1.8205,2.32133 -2.9649,3.05955 -2.9649,1.91258 z M 721.39234,551.13753 c 0.0669,-1.62343 0.39708,-1.95364 0.84194,-0.84195 0.40257,1.00598 0.35306,2.20794 -0.11002,2.67101 -0.46307,0.46307 -0.79244,-0.36001 -0.73193,-1.82906 z m 724.65456,-1.39356 c 0.067,-1.62344 0.3971,-1.95364 0.842,-0.84195 0.4025,1.00597 0.353,2.20794 -0.11,2.671 -0.4631,0.46307 -0.7924,-0.36001 -0.7319,-1.82905 z m -675.19343,-5.55768 c -0.51258,-2.04229 -0.66321,-3.98201 -0.33472,-4.3105 0.32848,-0.32848 1.01663,1.07373 1.52921,3.11601 0.51258,2.04229 0.66321,3.98201 0.33472,4.3105 -0.32848,0.32848 -1.01663,-1.07373 -1.52921,-3.11601 z M 750.65724,539.989 c 0.0669,-1.62343 0.39708,-1.95364 0.84194,-0.84195 0.40256,1.00597 0.35305,2.20794 -0.11002,2.67101 -0.46307,0.46307 -0.79244,-0.36002 -0.73193,-1.82906 z m 18.11636,-4.1807 c 0.0669,-1.62343 0.39708,-1.95364 0.84195,-0.84195 0.40256,1.00598 0.35305,2.20794 -0.11003,2.67101 -0.46307,0.46307 -0.79244,-0.36002 -0.73193,-1.82906 z m -19.50993,-2.78713 c 0.0669,-1.62344 0.39708,-1.95364 0.84195,-0.84195 0.40256,1.00597 0.35305,2.20794 -0.11003,2.67101 -0.46307,0.46306 -0.79244,-0.36002 -0.73193,-1.82906 z m 18.11636,-4.1807 c 0.0669,-1.62344 0.39709,-1.95364 0.84195,-0.84195 0.40256,1.00597 0.35305,2.20794 -0.11002,2.67101 -0.46307,0.46306 -0.79244,-0.36002 -0.73193,-1.82906 z m 684.24117,-4.1807 c 0.067,-1.62344 0.3971,-1.95364 0.8419,-0.84195 0.4026,1.00597 0.3531,2.20794 -0.1099,2.67101 -0.4631,0.46306 -0.7925,-0.36002 -0.732,-1.82906 z m -737.19669,-2.78713 c 0.0669,-1.62344 0.39708,-1.95364 0.84194,-0.84195 0.40256,1.00597 0.35305,2.20793 -0.11002,2.671 -0.46307,0.46307 -0.79244,-0.36001 -0.73193,-1.82905 z m 738.70029,-3.36779 c 0,-1.91616 0.3163,-2.70004 0.7029,-1.74196 0.3866,0.95807 0.3866,2.52584 0,3.48391 -0.3866,0.95808 -0.7029,0.1742 -0.7029,-1.74195 z m -739.98384,-2.78714 c 0,-1.91615 0.3163,-2.70003 0.70289,-1.74196 0.3866,0.95808 0.3866,2.52584 0,3.48392 -0.38659,0.95808 -0.70289,0.1742 -0.70289,-1.74196 z m 32.05203,-1.39356 c 0,-1.91616 0.3163,-2.70004 0.70289,-1.74196 0.3866,0.95808 0.3866,2.52584 0,3.48391 -0.38659,0.95808 -0.70289,0.1742 -0.70289,-1.74195 z m 709.21531,-2.20648 c 0.067,-1.62343 0.3971,-1.95364 0.842,-0.84195 0.4025,1.00597 0.353,2.20794 -0.11,2.67101 -0.4631,0.46307 -0.7924,-0.36002 -0.7319,-1.82906 z M 763.19933,510.7241 c 0.0669,-1.62343 0.39709,-1.95364 0.84195,-0.84195 0.40256,1.00598 0.35305,2.20794 -0.11002,2.67101 -0.46307,0.46307 -0.79244,-0.36001 -0.73193,-1.82906 z m 659.15697,0 c 0.067,-1.62343 0.3971,-1.95364 0.8419,-0.84195 0.4026,1.00598 0.3531,2.20794 -0.1099,2.67101 -0.4631,0.46307 -0.7925,-0.36001 -0.732,-1.82906 z m -710.60891,-3.36779 c 0,-1.91615 0.3163,-2.70003 0.7029,-1.74195 0.38659,0.95807 0.38659,2.52583 0,3.48391 -0.3866,0.95808 -0.7029,0.1742 -0.7029,-1.74196 z m 32.05203,-1.39356 c 0,-1.91616 0.3163,-2.70004 0.7029,-1.74196 0.38659,0.95808 0.38659,2.52584 0,3.48392 -0.3866,0.95807 -0.7029,0.17419 -0.7029,-1.74196 z m 712.00248,-0.81291 c 0.067,-1.62344 0.3971,-1.95364 0.8419,-0.84195 0.4026,1.00597 0.3531,2.20794 -0.1099,2.671 -0.4631,0.46307 -0.7925,-0.36001 -0.732,-1.82905 z m -693.88611,-1.97423 c 0,-1.91615 0.3163,-2.70003 0.70289,-1.74195 0.38659,0.95807 0.38659,2.52584 0,3.48391 -0.38659,0.95808 -0.70289,0.1742 -0.70289,-1.74196 z m 342.59731,0.79485 c 0,-0.38323 1.2542,-1.36802 2.7871,-2.18841 1.533,-0.8204 2.7872,-1.17808 2.7872,-0.79485 0,0.38323 -1.2542,1.36802 -2.7872,2.18841 -1.5329,0.8204 -2.7871,1.17808 -2.7871,0.79485 z m -394.10764,-7.0659 c 0.0284,-2.29938 0.34073,-3.07133 0.69406,-1.71543 0.35333,1.35589 0.33009,3.23721 -0.0516,4.1807 -0.38174,0.94348 -0.67083,-0.16588 -0.64242,-2.46527 z m 746.90004,0.69679 c 0,-1.91616 0.3163,-2.70004 0.7029,-1.74196 0.3865,0.95808 0.3865,2.52584 0,3.48392 -0.3866,0.95807 -0.7029,0.17419 -0.7029,-1.74196 z m -715.00966,-0.81291 c 0.0669,-1.62344 0.39708,-1.95364 0.84194,-0.84195 0.40256,1.00597 0.35306,2.20794 -0.11002,2.671 -0.46307,0.46307 -0.79244,-0.36001 -0.73193,-1.82905 z m 18.11636,-1.39357 c 0.0669,-1.62343 0.39709,-1.95364 0.84195,-0.84195 0.40256,1.00597 0.35305,2.20794 -0.11002,2.67101 -0.46308,0.46307 -0.79244,-0.36002 -0.73193,-1.82906 z m -19.50993,-4.1807 c 0.0669,-1.62343 0.39708,-1.95364 0.84195,-0.84195 0.40256,1.00598 0.35305,2.20794 -0.11003,2.67101 -0.46307,0.46307 -0.79243,-0.36002 -0.73192,-1.82906 z m -31.94201,-3.36779 c 0,-1.91615 0.3163,-2.70003 0.70289,-1.74196 0.3866,0.95808 0.3866,2.52584 0,3.48392 -0.38659,0.95808 -0.70289,0.1742 -0.70289,-1.74196 z m 420.63704,2.18842 c 0,-0.38323 1.2542,-1.36803 2.7871,-2.18842 1.533,-0.82039 2.7872,-1.17808 2.7872,-0.79485 0,0.38323 -1.2542,1.36803 -2.7872,2.18842 -1.5329,0.82039 -2.7871,1.17808 -2.7871,0.79485 z m 329.1017,-2.18842 c 0,-1.91615 0.3163,-2.70003 0.7029,-1.74196 0.3866,0.95808 0.3866,2.52584 0,3.48392 -0.3866,0.95808 -0.7029,0.1742 -0.7029,-1.74196 z m -32.162,-0.81291 c 0.067,-1.62343 0.3971,-1.95364 0.8419,-0.84195 0.4026,1.00598 0.3531,2.20794 -0.1099,2.67101 -0.4631,0.46307 -0.7925,-0.36002 -0.732,-1.82906 z m -687.0283,-4.1807 c 0.0669,-1.62343 0.39709,-1.95364 0.84195,-0.84195 0.40256,1.00598 0.35305,2.20794 -0.11002,2.67101 -0.46307,0.46307 -0.79244,-0.36001 -0.73193,-1.82906 z m 18.11637,-1.39356 c 0.0669,-1.62344 0.39708,-1.95364 0.84194,-0.84195 0.40256,1.00597 0.35306,2.20793 -0.11002,2.671 -0.46307,0.46307 -0.79244,-0.36001 -0.73193,-1.82905 z m 670.46713,-1.27744 c 0.028,-2.29939 0.3407,-3.07134 0.6941,-1.71544 0.3533,1.3559 0.33,3.23721 -0.052,4.1807 -0.3818,0.94348 -0.6709,-0.16588 -0.6425,-2.46526 z m -720.63553,-0.11609 c 0.0669,-1.62343 0.39709,-1.95364 0.84195,-0.84195 0.40256,1.00597 0.35305,2.20794 -0.11002,2.67101 -0.46307,0.46307 -0.79244,-0.36002 -0.73193,-1.82906 z m 752.52593,0 c 0.067,-1.62343 0.3971,-1.95364 0.8419,-0.84195 0.4026,1.00597 0.3531,2.20794 -0.1099,2.67101 -0.4631,0.46307 -0.7925,-0.36002 -0.732,-1.82906 z m -303.2928,-5.38126 c 1.4878,-1.19202 3.3169,-2.16727 4.0646,-2.16727 1.7706,0 0.98,0.64369 -3.2858,2.67524 -3.285,1.56449 -3.3294,1.53548 -0.7788,-0.50801 z m 272.7443,-2.16727 c 0,-1.91615 0.3163,-2.70004 0.7029,-1.74196 0.3866,0.95808 0.3866,2.52584 0,3.48392 -0.3866,0.95807 -0.7029,0.17419 -0.7029,-1.74196 z m -691.20894,-1.39357 c 0,-1.91615 0.3163,-2.70003 0.70289,-1.74196 0.38659,0.95808 0.38659,2.52584 0,3.48392 -0.38659,0.95808 -0.70289,0.1742 -0.70289,-1.74196 z m 18.168,-0.69678 c 0.0284,-2.29939 0.34072,-3.07134 0.69405,-1.71544 0.35333,1.3559 0.3301,3.23721 -0.0516,4.1807 -0.38173,0.94349 -0.67082,-0.16588 -0.64242,-2.46526 z m 704.98304,1.27744 c 0.067,-1.62343 0.397,-1.95364 0.8419,-0.84195 0.4025,1.00597 0.3531,2.20794 -0.11,2.67101 -0.463,0.46306 -0.7924,-0.36002 -0.7319,-1.82906 z m -755.15144,-2.67101 c 0.0284,-2.29938 0.34073,-3.07133 0.69406,-1.71544 0.35333,1.3559 0.33009,3.23722 -0.0516,4.1807 -0.38174,0.94349 -0.67083,-0.16587 -0.64243,-2.46526 z m 466.57314,-2.63803 c 0,-0.30124 0.9732,-0.92115 2.1627,-1.37761 1.2402,-0.47589 1.7995,-0.24227 1.3113,0.54768 -0.8184,1.32418 -3.474,1.95859 -3.474,0.82993 z m 258.2083,-8.5105 c 0.011,-3.83231 0.2812,-5.23467 0.6015,-3.11636 0.3203,2.1183 0.3117,5.25383 -0.019,6.96783 -0.3308,1.714 -0.5929,-0.0192 -0.5824,-3.85147 z m 31.9252,2.78713 c 0.028,-2.29938 0.3407,-3.07133 0.694,-1.71543 0.3533,1.35589 0.3301,3.23721 -0.052,4.18069 -0.3817,0.94349 -0.6708,-0.16587 -0.6424,-2.46526 z m -726.20983,-0.11608 c 0.0669,-1.62344 0.39708,-1.95364 0.84195,-0.84195 0.40256,1.00597 0.35305,2.20794 -0.11003,2.67101 -0.46307,0.46306 -0.79243,-0.36002 -0.73192,-1.82906 z m 18.27802,-1.27748 c 0.0284,-2.29939 0.34073,-3.07134 0.69406,-1.71544 0.35332,1.3559 0.33009,3.23721 -0.0516,4.1807 -0.38174,0.94348 -0.67083,-0.16588 -0.64243,-2.46526 z m 429.96871,0.52385 c 0.9454,-0.95239 2.0698,-1.38056 2.4989,-0.9515 0.4291,0.42907 -0.3444,1.2083 -1.7187,1.73162 -1.9861,0.75626 -2.1462,0.5962 -0.7802,-0.78012 z m -480.18874,-2.6142 c 0,-1.91616 0.3163,-2.70004 0.7029,-1.74196 0.38659,0.95808 0.38659,2.52584 0,3.48392 -0.3866,0.95807 -0.7029,0.17419 -0.7029,-1.74196 z m 30.65846,-5.57427 c 0,-1.91615 0.3163,-2.70003 0.7029,-1.74196 0.38659,0.95808 0.38659,2.52584 0,3.48392 -0.3866,0.95808 -0.7029,0.1742 -0.7029,-1.74196 z m 728.93858,-4.1807 c 0,-2.68261 0.2868,-3.78005 0.6373,-2.43874 0.3505,1.34131 0.3505,3.53618 0,4.87748 -0.3505,1.34131 -0.6373,0.24388 -0.6373,-2.43874 z m -760.93897,-0.69678 c 0.0284,-2.29939 0.34072,-3.07134 0.69406,-1.71544 0.35332,1.3559 0.33009,3.23721 -0.0516,4.1807 -0.38173,0.94349 -0.67082,-0.16588 -0.64242,-2.46526 z m 50.11676,0.69678 c 0,-1.91615 0.3163,-2.70003 0.70289,-1.74196 0.38659,0.95808 0.38659,2.52584 0,3.48392 -0.38659,0.95808 -0.70289,0.1742 -0.70289,-1.74196 z m -1.26217,-9.05818 c 0.0155,-3.06585 0.30085,-4.15596 0.63418,-2.42249 0.33333,1.73347 0.32067,4.24189 -0.0281,5.57426 -0.3488,1.33238 -0.62153,-0.0859 -0.60606,-3.15177 z m -18.14449,-0.69678 c 0,-2.68262 0.28679,-3.78005 0.63731,-2.43875 0.35052,1.34131 0.35052,3.53618 0,4.87749 -0.35052,1.3413 -0.63731,0.24387 -0.63731,-2.43874 z m 697.96357,1.97422 c 0.067,-1.62344 0.397,-1.95364 0.8419,-0.84195 0.4026,1.00597 0.3531,2.20794 -0.11,2.67101 -0.463,0.46306 -0.7924,-0.36002 -0.7319,-1.82906 z m 33.5556,-0.58066 c 0,-1.91615 0.3163,-2.70003 0.7029,-1.74196 0.3866,0.95808 0.3866,2.52584 0,3.48392 -0.3866,0.95808 -0.7029,0.1742 -0.7029,-1.74196 z m -763.62284,-4.87748 c 0.0284,-2.29939 0.34073,-3.07134 0.69406,-1.71544 0.35333,1.3559 0.33009,3.23721 -0.0516,4.1807 -0.38174,0.94349 -0.67083,-0.16588 -0.64243,-2.46526 z m 537.27334,-0.86971 c 0.9454,-0.95239 2.0698,-1.38057 2.4989,-0.9515 0.429,0.42906 -0.3444,1.20829 -1.7187,1.73162 -1.9862,0.75626 -2.1462,0.59619 -0.7802,-0.78012 z m 194.2974,-6.79491 c 0,-1.91615 0.3163,-2.70003 0.7029,-1.74196 0.3866,0.95808 0.3866,2.52584 0,3.48392 -0.3866,0.95808 -0.7029,0.1742 -0.7029,-1.74196 z m 33.4456,0 c 0,-1.91615 0.3163,-2.70003 0.7029,-1.74196 0.3866,0.95808 0.3866,2.52584 0,3.48392 -0.3866,0.95808 -0.7029,0.1742 -0.7029,-1.74196 z m -766.35827,-4.1807 c 0,-2.68261 0.28679,-3.78005 0.63731,-2.43874 0.35052,1.34131 0.35052,3.53618 0,4.87748 -0.35052,1.34131 -0.63731,0.24388 -0.63731,-2.43874 z m 50.24367,-6.27105 c 0.0104,-3.8323 0.2811,-5.23466 0.60141,-3.11636 0.32032,2.11831 0.31176,5.25383 -0.019,6.96783 -0.33078,1.71401 -0.59285,-0.0192 -0.58239,-3.85147 z m -18.16351,0 c 0.0155,-3.06584 0.30085,-4.15596 0.63418,-2.42249 0.33333,1.73347 0.32067,4.24189 -0.0281,5.57427 -0.3488,1.33237 -0.62153,-0.0859 -0.60606,-3.15178 z m 540.35241,2.93623 c 0,-0.30123 0.9732,-0.92114 2.1627,-1.37761 1.2402,-0.47588 1.7995,-0.24227 1.3113,0.54769 -0.8184,1.32418 -3.474,1.95859 -3.474,0.82992 z m 195.3709,-7.11693 c 0.028,-2.29938 0.3408,-3.07133 0.6941,-1.71543 0.3533,1.35589 0.3301,3.23721 -0.052,4.1807 -0.3817,0.94348 -0.6708,-0.16588 -0.6424,-2.46527 z m -33.3187,-4.1807 c 0.011,-3.8323 0.2812,-5.23466 0.6015,-3.11636 0.3203,2.11831 0.3117,5.25383 -0.019,6.96783 -0.3308,1.71401 -0.5929,-0.0192 -0.5824,-3.85147 z m -145.3294,4.3298 c 0,-0.30123 0.9732,-0.92115 2.1627,-1.37761 1.2401,-0.47589 1.7995,-0.24227 1.3113,0.54769 -0.8184,1.32418 -3.474,1.95859 -3.474,0.82992 z m -590.47366,-7.11693 c 0.0104,-3.83231 0.2811,-5.23467 0.60141,-3.11636 0.32032,2.1183 0.31176,5.25383 -0.019,6.96783 -0.33078,1.714 -0.59286,-0.0192 -0.58239,-3.85147 z m 32.12197,-20.20671 c 0,-5.74847 0.24599,-8.10011 0.54664,-5.22588 0.30066,2.87423 0.30066,7.57752 0,10.45175 -0.30065,2.87423 -0.54664,0.52259 -0.54664,-5.22587 z m 738.62409,-4.1807 c 0,-7.28139 0.2349,-10.26014 0.522,-6.61944 0.287,3.64069 0.287,9.59819 0,13.23888 -0.2871,3.64069 -0.522,0.66194 -0.522,-6.61944 z M 749.83162,317.85017 c 0.0186,-70.71802 0.0589,-71.7539 2.80595,-72.03705 2.14245,-0.22084 2.22593,-0.12152 0.36088,0.42926 -2.25854,0.667 -2.4525,5.64654 -2.80595,72.03705 l -0.37969,71.32051 z M 1436.835,308.0763 c 0,-44.83801 0.1761,-63.18083 0.3913,-40.76183 0.2152,22.41901 0.2152,59.10465 0,81.52365 -0.2152,22.419 -0.3913,4.07618 -0.3913,-40.76182 z m -75.9057,76.64616 c 1.1497,-0.743 2.7175,-1.35089 3.484,-1.35089 0.7664,0 0.4529,0.60789 -0.6968,1.35089 -1.1497,0.74299 -2.7175,1.35088 -3.4839,1.35088 -0.7665,0 -0.4529,-0.60789 0.6967,-1.35088 z m -662.89157,-9.75497 c 0,-4.982 0.25293,-7.02009 0.56206,-4.52909 0.30913,2.491 0.30913,6.56718 0,9.05818 -0.30913,2.491 -0.56206,0.45291 -0.56206,-4.52909 z m 697.46947,-0.95196 c 1.006,-0.40256 2.208,-0.35306 2.671,0.10995 0.4631,0.46307 -0.36,0.79244 -1.829,0.73193 -1.6235,-0.0669 -1.9537,-0.39708 -0.842,-0.84193 z m 23.1996,-66.63602 c 3e-4,-34.49077 0.1816,-48.40103 0.4028,-30.9117 0.2213,17.48933 0.2211,45.70905 -5e-4,62.71049 -0.2216,17.00145 -0.4026,2.69198 -0.4023,-31.79879 z m 22.0042,20.67123 c -0.958,-0.38323 -1.7419,-1.34841 -1.7419,-2.14485 0,-0.89362 0.777,-0.80322 2.0293,0.23611 2.7215,2.25866 5.3602,0.42007 4.4411,-3.09449 -0.5658,-2.16343 -0.3554,-2.44578 0.8924,-1.19794 2.8916,2.89154 -1.5752,7.81944 -5.6209,6.20117 z M 698.15579,297.62455 c 0.002,-12.26339 0.21496,-17.09367 0.47377,-10.73398 0.2588,6.35971 0.25736,16.39339 -0.003,22.29707 -0.26057,5.90369 -0.47232,0.70029 -0.47056,-11.56309 z m 25.21688,14.63245 c 0.4737,-0.76647 1.76492,-1.39357 2.86938,-1.39357 1.10446,0 2.0081,0.6271 2.0081,1.39357 0,0.76646 -1.29122,1.39356 -2.86937,1.39356 -1.57816,0 -2.48181,-0.6271 -2.00811,-1.39356 z m 8.23775,-34.83917 c 0,-13.41308 0.20901,-18.90025 0.46447,-12.19371 0.25546,6.70654 0.25546,17.68088 0,24.38742 -0.25546,6.70654 -0.46447,1.21937 -0.46447,-12.19371 z m 738.58438,-13.93566 c 0,-12.64662 0.2113,-17.82024 0.4695,-11.49693 0.2582,6.32331 0.2582,16.67054 0,22.99385 -0.2582,6.32331 -0.4695,1.14969 -0.4695,-11.49692 z M 760.04089,244.41384 c 1.00598,-0.40256 2.20793,-0.35306 2.671,0.10995 0.46307,0.46307 -0.36,0.79244 -1.82905,0.73193 -1.62343,-0.0669 -1.95364,-0.39708 -0.84195,-0.84193 z m 652.18911,0 c 1.006,-0.40256 2.208,-0.35306 2.671,0.10995 0.4631,0.46307 -0.36,0.79244 -1.829,0.73193 -1.6235,-0.0669 -1.9537,-0.39708 -0.842,-0.84193 z m -645.22128,-1.39357 c 1.00598,-0.40256 2.20793,-0.35306 2.671,0.10996 0.46307,0.46307 -0.36,0.79243 -1.82905,0.73193 -1.62343,-0.0669 -1.95364,-0.39709 -0.84195,-0.84194 z m 635.37918,0.029 c 0.9581,-0.38659 2.5259,-0.38659 3.484,0 0.958,0.38659 0.1742,0.7029 -1.742,0.7029 -1.9161,0 -2.7,-0.31631 -1.742,-0.7029 z m -625.62421,-1.42256 c 1.00598,-0.40256 2.20793,-0.35306 2.671,0.10995 0.46307,0.46307 -0.36001,0.79244 -1.82906,0.73193 -1.62342,-0.0669 -1.95364,-0.39708 -0.84194,-0.84194 z m 615.19901,-0.0139 c 1.3559,-0.35332 3.2372,-0.33009 4.1807,0.0517 0.9435,0.38174 -0.1659,0.67082 -2.4652,0.64242 -2.2994,-0.0284 -3.0714,-0.34072 -1.7155,-0.69405 z m -606.83761,-1.37967 c 1.00598,-0.40256 2.20793,-0.35306 2.671,0.10995 0.46307,0.46307 -0.36001,0.79244 -1.82906,0.73193 -1.62342,-0.0669 -1.95364,-0.39708 -0.84194,-0.84193 z m 596.35941,0.029 c 0.958,-0.38659 2.5258,-0.38659 3.4839,0 0.958,0.38659 0.1742,0.7029 -1.742,0.7029 -1.9161,0 -2.7,-0.31631 -1.7419,-0.7029 z m -587.99801,-1.42257 c 1.00598,-0.40255 2.20793,-0.35306 2.671,0.10996 0.46307,0.46307 -0.36001,0.79243 -1.82906,0.73193 -1.62342,-0.0669 -1.95364,-0.39709 -0.84194,-0.84194 z m 581.11721,0 c 1.006,-0.40255 2.208,-0.35306 2.671,0.10996 0.4631,0.46307 -0.36,0.79243 -1.829,0.73193 -1.6235,-0.0669 -1.9537,-0.39709 -0.842,-0.84194 z m -575.54295,-1.39356 c 1.00598,-0.40256 2.20793,-0.35306 2.671,0.10995 0.46307,0.46307 -0.36,0.79244 -1.82905,0.73193 -1.62343,-0.0669 -1.95364,-0.39708 -0.84195,-0.84194 z m 6.96783,-1.39357 c 1.00598,-0.40256 2.20793,-0.35306 2.67101,0.10995 0.46307,0.46307 -0.36001,0.79244 -1.82906,0.73193 -1.62343,-0.0669 -1.95364,-0.39708 -0.84195,-0.84193 z m 556.03302,0 c 1.006,-0.40256 2.208,-0.35306 2.671,0.10995 0.4631,0.46307 -0.36,0.79244 -1.829,0.73193 -1.6235,-0.0669 -1.9537,-0.39708 -0.842,-0.84193 z m -6.9678,-1.39356 c 1.006,-0.40256 2.2079,-0.35306 2.671,0.10995 0.4631,0.46307 -0.36,0.79244 -1.8291,0.73193 -1.6234,-0.0669 -1.9536,-0.39709 -0.8419,-0.84194 z m -530.94885,-2.78714 c 1.00597,-0.40256 2.20792,-0.35306 2.671,0.10995 0.46307,0.46307 -0.36001,0.79244 -1.82905,0.73193 -1.62344,-0.0669 -1.95364,-0.39708 -0.84195,-0.84193 z m 519.80035,0 c 1.0059,-0.40256 2.2079,-0.35306 2.671,0.10995 0.463,0.46307 -0.3601,0.79244 -1.8291,0.73193 -1.6234,-0.0669 -1.9536,-0.39708 -0.8419,-0.84193 z m -608.98861,-4.1807 c 1.00598,-0.40256 2.20793,-0.35306 2.67101,0.10995 0.46306,0.46309 -0.36001,0.79244 -1.82906,0.73193 -1.62343,-0.0669 -1.95364,-0.39708 -0.84195,-0.84193 z m 592.26581,0 c 1.0059,-0.40256 2.2079,-0.35306 2.671,0.10995 0.463,0.46309 -0.3601,0.79244 -1.8291,0.73193 -1.6234,-0.0669 -1.9536,-0.39708 -0.8419,-0.84193 z m -583.90441,-1.39356 c 1.00598,-0.40256 2.20793,-0.35306 2.671,0.10995 0.46307,0.46308 -0.36,0.79244 -1.82905,0.73193 -1.62343,-0.0669 -1.95364,-0.39709 -0.84195,-0.84194 z m 683.48381,-0.0139 c 1.3559,-0.35332 3.2372,-0.33009 4.1807,0.0516 0.9435,0.38174 -0.1659,0.67082 -2.4653,0.64242 -2.2994,-0.0284 -3.0713,-0.34072 -1.7154,-0.69405 z M 699.20828,214.44119 c -0.12266,-6.6613 0.24731,-12.40392 0.82215,-12.76139 0.57485,-0.35746 0.87055,3.21139 0.65712,7.93076 -0.69503,15.36827 -1.25175,17.18627 -1.47927,4.83063 z m 51.71385,10.44895 c 1.3559,-0.35332 3.23721,-0.33009 4.1807,0.0516 0.94349,0.38174 -0.16588,0.67082 -2.46526,0.64242 -2.29939,-0.0284 -3.07134,-0.34072 -1.71544,-0.69405 z m 664.00787,0.0428 c 0.9581,-0.38659 2.5259,-0.38659 3.484,0 0.958,0.38659 0.1742,0.7029 -1.742,0.7029 -1.9161,0 -2.7,-0.31631 -1.742,-0.7029 z m -650.70841,-1.4226 c 1.00598,-0.40256 2.20793,-0.35306 2.671,0.10996 0.46307,0.46308 -0.36,0.79243 -1.82905,0.73192 -1.62343,-0.0669 -1.95365,-0.39708 -0.84195,-0.84193 z m 544.88451,0 c 1.006,-0.40256 2.2079,-0.35306 2.671,0.10996 0.4631,0.46308 -0.36,0.79243 -1.8291,0.73192 -1.6234,-0.0669 -1.9536,-0.39708 -0.8419,-0.84193 z m 94.6754,0.029 c 0.9581,-0.38659 2.5259,-0.38659 3.4839,0 0.9581,0.38659 0.1742,0.7029 -1.7419,0.7029 -1.9162,0 -2.7001,-0.31631 -1.742,-0.7029 z m -631.28561,-1.39358 c 0.95808,-0.38659 2.52584,-0.38659 3.48392,0 0.95807,0.38659 0.17419,0.7029 -1.74196,0.7029 -1.91616,0 -2.70004,-0.31631 -1.74196,-0.7029 z m 621.53061,0 c 0.9581,-0.38659 2.5259,-0.38659 3.484,0 0.958,0.38659 0.1742,0.7029 -1.742,0.7029 -1.9161,0 -2.7,-0.31631 -1.742,-0.7029 z M 781.20568,220.2816 c 1.91615,-0.61365 4.73813,-1.11574 6.27105,-1.11574 2.20694,0 2.0619,0.23226 -0.69678,1.11574 -1.91616,0.61366 -4.73813,1.11575 -6.27105,1.11575 -2.20695,0 -2.0619,-0.23227 0.69678,-1.11575 z m 518.14542,0.44161 c 1.006,-0.40256 2.208,-0.35306 2.671,0.10995 0.4631,0.46308 -0.36,0.79244 -1.829,0.73193 -1.6235,-0.0669 -1.9537,-0.39708 -0.842,-0.84194 z m 89.1883,0 c 1.006,-0.40256 2.2079,-0.35306 2.671,0.10995 0.4631,0.46308 -0.36,0.79244 -1.8291,0.73193 -1.6234,-0.0669 -1.9536,-0.39708 -0.8419,-0.84194 z m -517.01319,-1.39357 c 1.00597,-0.40256 2.20792,-0.35306 2.67101,0.10996 0.46306,0.46308 -0.36002,0.79243 -1.82906,0.73192 -1.62344,-0.0669 -1.95364,-0.39708 -0.84195,-0.84193 z m 509.95829,0.029 c 0.958,-0.38659 2.5258,-0.38659 3.4839,0 0.958,0.38659 0.1742,0.7029 -1.742,0.7029 -1.9161,0 -2.7,-0.31631 -1.7419,-0.7029 z m -586.60445,-1.42256 c 1.00598,-0.40256 2.20793,-0.35306 2.671,0.10995 0.46307,0.46308 -0.36,0.79244 -1.82905,0.73193 -1.62343,-0.0669 -1.95364,-0.39709 -0.84195,-0.84194 z m 578.33005,0 c 1.006,-0.40256 2.208,-0.35306 2.6711,0.10995 0.463,0.46308 -0.3601,0.79244 -1.8291,0.73193 -1.6234,-0.0669 -1.9536,-0.39709 -0.842,-0.84194 z m -6.9678,-1.39357 c 1.006,-0.40256 2.2079,-0.35306 2.671,0.10995 0.4631,0.46308 -0.36,0.79244 -1.829,0.73193 -1.6235,-0.0669 -1.9537,-0.39708 -0.842,-0.84194 z m -558.82015,-1.39357 c 1.00597,-0.40256 2.20792,-0.35306 2.67101,0.10996 0.46306,0.46308 -0.36002,0.79243 -1.82906,0.73192 -1.62343,-0.0669 -1.95364,-0.39708 -0.84195,-0.84193 z m 5.57427,-1.39356 c 1.00597,-0.40256 2.20792,-0.35306 2.671,0.10995 0.46307,0.46308 -0.36001,0.79244 -1.82905,0.73193 -1.62344,-0.0669 -1.95364,-0.39708 -0.84195,-0.84194 z m 78.03972,0 c 1.00597,-0.40256 2.20792,-0.35306 2.67101,0.10995 0.46306,0.46308 -0.36002,0.79244 -1.82906,0.73193 -1.62344,-0.0669 -1.95364,-0.39708 -0.84195,-0.84194 z m -71.15899,-1.36454 c 0.95808,-0.38659 2.52584,-0.38659 3.48392,0 0.95807,0.38659 0.17419,0.7029 -1.74196,0.7029 -1.91616,0 -2.70004,-0.31631 -1.74196,-0.7029 z m 76.73325,-0.029 c 1.00598,-0.40256 2.20793,-0.35306 2.67101,0.10995 0.46307,0.46309 -0.36001,0.79244 -1.82905,0.73193 -1.62344,-0.0669 -1.95364,-0.39708 -0.84196,-0.84193 z m 450.122,0 c 1.006,-0.40256 2.2079,-0.35306 2.671,0.10995 0.4631,0.46309 -0.36,0.79244 -1.8291,0.73193 -1.6234,-0.0669 -1.9536,-0.39708 -0.8419,-0.84193 z m -518.40675,-1.39356 c 1.00597,-0.40256 2.20792,-0.35306 2.671,0.10995 0.46307,0.46308 -0.36001,0.79244 -1.82905,0.73193 -1.62344,-0.0669 -1.95364,-0.39709 -0.84195,-0.84194 z m 5.57426,-1.39357 c 1.00598,-0.40256 2.20793,-0.35306 2.67101,0.10995 0.46307,0.46308 -0.36001,0.79244 -1.82906,0.73193 -1.62343,-0.0669 -1.95364,-0.39708 -0.84195,-0.84194 z m 500.29039,0 c 1.006,-0.40256 2.2079,-0.35306 2.671,0.10995 0.4631,0.46308 -0.36,0.79244 -1.8291,0.73193 -1.6234,-0.0669 -1.9536,-0.39708 -0.8419,-0.84194 z m -12.5421,-2.78713 c 1.006,-0.40256 2.2079,-0.35306 2.671,0.10995 0.4631,0.46308 -0.36,0.79244 -1.8291,0.73193 -1.6234,-0.0669 -1.9536,-0.39709 -0.8419,-0.84194 z m -455.69626,-5.57427 c 1.00598,-0.40256 2.20793,-0.35306 2.67101,0.10995 0.46307,0.46308 -0.36001,0.79244 -1.82906,0.73193 -1.62343,-0.0669 -1.95364,-0.39708 -0.84195,-0.84194 z m 597.75296,0.029 c 0.9581,-0.38659 2.5258,-0.38659 3.4839,0 0.9581,0.38658 0.1742,0.7029 -1.742,0.7029 -1.9161,0 -2.7,-0.31632 -1.7419,-0.7029 z m -755.22597,-1.4226 c 1.00598,-0.40256 2.20793,-0.35306 2.671,0.10995 0.46307,0.46309 -0.36,0.79244 -1.82906,0.73193 -1.62342,-0.0669 -1.95364,-0.39708 -0.84194,-0.84193 z m 745.55807,-1.39357 c 1.006,-0.40256 2.2079,-0.35306 2.671,0.10996 0.4631,0.46308 -0.36,0.79243 -1.829,0.73193 -1.6235,-0.0669 -1.9537,-0.39709 -0.842,-0.84194 z m -729.61915,-1.40223 c 1.3413,-0.35051 3.53617,-0.35051 4.87748,0 1.34131,0.35052 0.24387,0.63732 -2.43874,0.63732 -2.68262,0 -3.78005,-0.2868 -2.43874,-0.63732 z m 216.78668,0.008 c 1.00598,-0.40256 2.20793,-0.35306 2.67101,0.10995 0.46307,0.46309 -0.36001,0.79244 -1.82906,0.73193 -1.62343,-0.0669 -1.95364,-0.39708 -0.84195,-0.84193 z m 498.82597,-0.0337 c 1.7335,-0.33333 4.2419,-0.32068 5.5743,0.0282 1.3323,0.34879 -0.086,0.62153 -3.1518,0.60606 -3.0659,-0.0155 -4.156,-0.30086 -2.4225,-0.63419 z m -700.2569,-1.37297 c 1.35589,-0.35332 3.23721,-0.33009 4.1807,0.0516 0.94349,0.38174 -0.16588,0.67083 -2.46526,0.64243 -2.29939,-0.0284 -3.07134,-0.34073 -1.71544,-0.69406 z m 688.3953,0.006 c 1.3413,-0.35051 3.5362,-0.35051 4.8775,0 1.3413,0.35052 0.2439,0.63732 -2.4387,0.63732 -2.6827,0 -3.7801,-0.2868 -2.4388,-0.63732 z m -676.48941,-1.3858 c 1.00598,-0.40255 2.20793,-0.35306 2.671,0.10996 0.46307,0.46308 -0.36,0.79243 -1.82905,0.73193 -1.62343,-0.0669 -1.95364,-0.39709 -0.84195,-0.84194 z m 666.12481,0 c 1.006,-0.40255 2.2079,-0.35306 2.671,0.10996 0.4631,0.46308 -0.36,0.79243 -1.8291,0.73193 -1.6234,-0.0669 -1.9536,-0.39709 -0.8419,-0.84194 z m -150.5052,-2.78713 c 1.006,-0.40256 2.2079,-0.35306 2.671,0.11002 0.4631,0.46307 -0.36,0.79244 -1.8291,0.73193 -1.6234,-0.0669 -1.9536,-0.39709 -0.8419,-0.84195 z m 133.6953,0.029 c 0.9581,-0.38659 2.5258,-0.38659 3.4839,0 0.9581,0.3866 0.1742,0.7029 -1.742,0.7029 -1.9161,0 -2.7,-0.3163 -1.7419,-0.7029 z m -622.83715,-1.42257 c 1.00598,-0.40256 2.20793,-0.35305 2.67101,0.11002 0.46307,0.46307 -0.36001,0.79244 -1.82906,0.73193 -1.62343,-0.0669 -1.95364,-0.39708 -0.84195,-0.84195 z m 125.42099,0 c 1.00597,-0.40256 2.20792,-0.35305 2.671,0.11002 0.46307,0.46307 -0.36001,0.79244 -1.82905,0.73193 -1.62344,-0.0669 -1.95364,-0.39708 -0.84195,-0.84195 z m 487.74826,0 c 1.006,-0.40256 2.208,-0.35305 2.671,0.11002 0.4631,0.46307 -0.36,0.79244 -1.829,0.73193 -1.6235,-0.0669 -1.9537,-0.39708 -0.842,-0.84195 z m -607.59498,-1.39357 c 1.00598,-0.40256 2.20793,-0.35305 2.671,0.11003 0.46307,0.46307 -0.36,0.79243 -1.82905,0.73192 -1.62343,-0.0669 -1.95365,-0.39708 -0.84195,-0.84194 z m 473.38698,-0.42564 c -0.4882,-0.78995 0.071,-1.02358 1.3113,-0.54768 2.4143,0.92643 2.856,1.92529 0.8514,1.92529 -0.7212,0 -1.6944,-0.61992 -2.1627,-1.37761 z m -466.41915,-0.96792 c 1.00598,-0.40256 2.20793,-0.35306 2.671,0.11002 0.46307,0.46307 -0.36,0.79244 -1.82905,0.73193 -1.62343,-0.0669 -1.95364,-0.39709 -0.84195,-0.84195 z m 586.60445,0.029 c 0.958,-0.38659 2.5258,-0.38659 3.4839,0 0.958,0.3866 0.1742,0.7029 -1.742,0.7029 -1.9161,0 -2.7,-0.3163 -1.7419,-0.7029 z m -578.24305,-1.42259 c 1.00598,-0.40256 2.20793,-0.35305 2.671,0.11002 0.46307,0.46307 -0.36,0.79244 -1.82905,0.73193 -1.62343,-0.0669 -1.95364,-0.39708 -0.84195,-0.84195 z m 571.36225,0 c 1.006,-0.40256 2.2079,-0.35305 2.671,0.11002 0.4631,0.46307 -0.36,0.79244 -1.829,0.73193 -1.6235,-0.0669 -1.9537,-0.39708 -0.842,-0.84195 z m -563.00085,-1.39357 c 1.00597,-0.40256 2.20792,-0.35305 2.67101,0.11003 0.46306,0.46307 -0.36002,0.79243 -1.82906,0.73192 -1.62343,-0.0669 -1.95364,-0.39708 -0.84195,-0.84194 z m 554.63945,0 c 1.006,-0.40256 2.208,-0.35305 2.671,0.11003 0.4631,0.46307 -0.36,0.79243 -1.829,0.73192 -1.6235,-0.0669 -1.9537,-0.39708 -0.842,-0.84194 z m -437.31857,-1.83516 c 1.14969,-0.74299 2.71745,-1.35089 3.48391,-1.35089 0.76647,0 0.45291,0.6079 -0.69678,1.35089 -1.14969,0.74298 -2.71745,1.35088 -3.48391,1.35088 -0.76647,0 -0.45291,-0.6079 0.69678,-1.35088 z m -93.63025,-3.7391 c 1.00597,-0.40256 2.20792,-0.35305 2.67101,0.11002 0.46307,0.46307 -0.36002,0.79244 -1.82906,0.73193 -1.62343,-0.0669 -1.95364,-0.39709 -0.84195,-0.84195 z m 505.86462,0 c 1.006,-0.40256 2.208,-0.35305 2.671,0.11002 0.4631,0.46307 -0.36,0.79244 -1.829,0.73193 -1.6235,-0.0669 -1.9537,-0.39709 -0.842,-0.84195 z M 988.84709,177.9269 c 0,-0.30123 0.97322,-0.92115 2.16273,-1.37761 1.24016,-0.47589 1.79954,-0.24227 1.31132,0.54769 -0.81839,1.32417 -3.47405,1.95859 -3.47405,0.82992 z m 179.77011,-3.63301 c -1.1497,-0.74299 -1.4633,-1.35089 -0.6968,-1.35089 0.7664,0 2.3342,0.6079 3.4839,1.35089 1.1497,0.74298 1.4632,1.35088 0.6968,1.35088 -0.7665,0 -2.3342,-0.6079 -3.4839,-1.35088 z m 151.6374,0.4416 c 1.006,-0.40256 2.208,-0.35305 2.671,0.11002 0.4631,0.46307 -0.36,0.79244 -1.829,0.73193 -1.6235,-0.0669 -1.9537,-0.39709 -0.842,-0.84195 z m -314.6847,-3.91228 c 0,-0.95357 8.5327,-5.18396 9.1702,-4.54646 0.3023,0.30238 -1.6372,1.59269 -4.3102,2.86735 -2.673,1.27466 -4.86,2.03026 -4.86,1.67911 z m 289.6005,-3.05556 c 1.006,-0.40256 2.208,-0.35305 2.671,0.11003 0.4631,0.46307 -0.36,0.79244 -1.829,0.73193 -1.6235,-0.0669 -1.9537,-0.39709 -0.842,-0.84195 z m -324.43968,-3.22873 c 1.1497,-0.74299 2.71746,-1.35089 3.48392,-1.35089 0.76646,0 0.45291,0.6079 -0.69678,1.35089 -1.1497,0.74299 -2.71746,1.35089 -3.48392,1.35089 -0.76646,0 -0.45291,-0.6079 0.69678,-1.35089 z m 47.00968,-0.17293 c 0.9453,-0.95238 2.0697,-1.38056 2.4988,-0.9515 0.4291,0.42906 -0.3444,1.20829 -1.7187,1.73162 -1.9861,0.75626 -2.1462,0.59619 -0.7801,-0.78012 z m -37.25471,-3.4942 c 0,-0.94262 9.94629,-4.96747 10.61736,-4.2964 0.30863,0.30863 -1.95402,1.54913 -5.02812,2.75666 -3.07408,1.20754 -5.58924,1.90042 -5.58924,1.53974 z m 44.59411,0.33231 c 0,-0.30123 0.9732,-0.92115 2.1628,-1.3776 1.2401,-0.4759 1.7995,-0.24228 1.3113,0.54768 -0.8184,1.32417 -3.4741,1.95859 -3.4741,0.82992 z m 153.2923,-3.63301 c -1.1497,-0.74299 -1.4632,-1.35089 -0.6967,-1.35089 0.7664,0 2.3342,0.6079 3.4839,1.35089 1.1497,0.74299 1.4632,1.35088 0.6967,1.35088 -0.7664,0 -2.3342,-0.60789 -3.4839,-1.35088 z m -144.9309,-0.54769 c 0,-0.30123 0.9732,-0.92115 2.1628,-1.3776 1.2401,-0.4759 1.7995,-0.24227 1.3113,0.54768 -0.8184,1.32417 -3.4741,1.95859 -3.4741,0.82992 z m 90.4041,-4.67819 c -1.7692,-2.25584 -1.7036,-2.28541 0.8745,-0.39433 1.5329,1.12442 3.0485,2.22186 3.3678,2.43874 0.3194,0.21688 -0.074,0.39433 -0.8745,0.39433 -0.8004,0 -2.3159,-1.09743 -3.3678,-2.43874 z m -115.4883,-4.52909 c 1.1497,-0.74299 2.7175,-1.35089 3.4839,-1.35089 0.7665,0 0.4529,0.6079 -0.6968,1.35089 -1.1496,0.74299 -2.7174,1.35089 -3.4839,1.35089 -0.7664,0 -0.4529,-0.6079 0.6968,-1.35089 z m 124.0274,-12.5421 c -1.256,-0.81169 -1.4279,-1.3594 -0.4306,-1.37222 0.9128,-0.0117 2.0473,0.60576 2.521,1.37222 1.0693,1.73015 0.5868,1.73015 -2.0904,0 z m -43.3783,-2.43874 c -1.7334,-2.21027 -1.6841,-2.25956 0.5262,-0.52615 2.3213,1.82051 3.0595,2.96489 1.9125,2.96489 -0.2893,0 -1.3868,-1.09743 -2.4387,-2.43874 z m 106.0888,-2.43874 c -1.9161,-1.09537 -2.8568,-1.99159 -2.0903,-1.99159 0.7664,0 2.9613,0.89622 4.8775,1.99159 1.9161,1.09537 2.8568,1.99159 2.0903,1.99159 -0.7664,0 -2.9613,-0.89622 -4.8775,-1.99159 z m -213.21565,-5.57427 c 1.91616,-1.09537 4.11103,-1.99158 4.87749,-1.99158 0.76646,0 -0.1742,0.89621 -2.09035,1.99158 -1.91616,1.09538 -4.11102,1.99159 -4.87749,1.99159 -0.76646,0 0.1742,-0.89621 2.09035,-1.99159 z m 79.43325,-4.01006 c 0,-0.28938 1.0975,-1.38682 2.4388,-2.43874 2.2103,-1.73342 2.2596,-1.68413 0.5261,0.52614 -1.8205,2.32134 -2.9649,3.05955 -2.9649,1.9126 z m -63.98789,-2.769 c 0.31937,-0.27941 2.14842,-1.25467 4.06459,-2.16723 3.285,-1.56448 3.3295,-1.53548 0.7788,0.50802 -2.21994,1.77854 -6.75581,3.3324 -4.84339,1.65921 z m 98.04829,-3.05278 c -2.5976,-2.08114 -2.5806,-2.10687 0.4304,-0.64775 1.7246,0.83571 3.1355,1.81096 3.1355,2.16722 0,1.06639 -0.7227,0.75844 -3.5659,-1.51947 z m 68.2847,0 c -2.5506,-2.0435 -2.5062,-2.0725 0.7789,-0.50802 4.2657,2.03156 5.0563,2.67525 3.2857,2.67525 -0.7477,0 -2.5768,-0.97526 -4.0646,-2.16723 z m -88.781,-2.1864 c 0.9453,-0.95239 2.0698,-1.38056 2.4988,-0.9515 0.4291,0.42906 -0.3443,1.20829 -1.7187,1.73161 -1.9861,0.75627 -2.1462,0.5962 -0.7801,-0.78011 z m -55.3711,-5.94903 c 0,-0.30122 0.9733,-0.92115 2.1628,-1.3776 1.2401,-0.4759 1.7995,-0.24227 1.3113,0.54769 -0.8184,1.32417 -3.474,1.95858 -3.4741,0.82991 z m 81.5336,-25.914108 c -0.4883,-0.789957 0.071,-1.023584 1.3113,-0.547687 2.4142,0.926431 2.8559,1.925292 0.8514,1.925292 -0.7212,0 -1.6945,-0.619923 -2.1627,-1.377605 z m -28.578,-3.401816 c 0,-0.383231 1.2542,-1.368017 2.7871,-2.188412 1.5329,-0.820395 2.7871,-1.178077 2.7871,-0.794846 0,0.383231 -1.2542,1.368017 -2.7871,2.188413 -1.5329,0.820395 -2.7871,1.178076 -2.7871,0.794845 z"
         id="path2102" />
      <path
         style="fill:#0046a6;stroke-width:1.39357"
         d="m 1064.0997,974.0628 c -9.5808,-6.10731 -24.9449,-15.83464 -34.1424,-21.61631 -9.1975,-5.78165 -22.2093,-14.38321 -28.915,-19.11455 -6.70573,-4.73134 -14.8526,-10.48376 -18.10419,-12.78314 -5.59263,-3.9549 -19.46351,-14.56614 -37.34384,-28.56812 -28.13891,-22.0354 -61.09261,-53.43364 -88.98278,-84.78269 -24.75701,-27.82732 -28.12581,-32.20003 -56.00177,-72.69033 -42.26914,-61.39662 -76.52054,-152.59934 -89.75579,-238.99666 -5.27395,-34.42748 -10.43268,-83.48856 -11.80057,-112.22704 -1.47326,-30.95244 0.0655,-177.95255 1.89366,-180.91066 0.88335,-1.4293 2.40029,-1.67538 30.18824,-4.89712 42.74169,-4.95548 88.02176,-13.84841 125.32301,-24.61321 41.86232,-12.08109 80.3309,-25.85035 105.91105,-37.9093 6.51493,-3.07125 16.54861,-7.76109 22.29707,-10.42187 18.53481,-8.57915 42.21381,-20.75459 53.65231,-27.587286 18.0649,-10.790954 43.9704,-24.381376 46.4641,-24.375754 1.2709,0.0029 4.192,1.151734 6.4914,2.553043 2.2994,1.401308 7.9434,4.630893 12.5421,7.176855 4.5988,2.545962 15.5731,8.717009 24.3874,13.713436 15.8074,8.960486 45.1715,23.902086 68.2848,34.746006 33.4047,15.67227 87.6738,34.89903 128.2081,45.42233 31.8938,8.2801 89.479,18.90265 114.2725,21.07948 4.982,0.43741 13.8303,1.84581 19.6628,3.12977 l 10.6047,2.33447 0.9508,75.32152 c 0.934,73.98278 -0.3189,130.52117 -3.3675,151.9677 -0.7627,5.36523 -2.281,17.28022 -3.374,26.47776 -7.3218,61.6135 -22.817,123.13318 -44.7726,177.7587 -22.3034,55.49075 -51.5314,104.41564 -93.0223,155.71056 -15.1814,18.76867 -55.1964,60.10769 -73.4198,75.84925 -4.982,4.30348 -10.626,9.19038 -12.5421,10.85979 -1.9162,1.66939 -7.1602,5.95414 -11.6533,9.52165 -4.4931,3.56752 -11.0777,8.94368 -14.6324,11.94702 -9.2468,7.8125 -41.5576,31.5951 -48.9669,36.04247 -3.4491,2.07025 -9.7202,6.20191 -13.9357,9.18146 -11.7535,8.30737 -66.1636,41.99956 -67.659,41.89628 -0.7274,-0.0502 -9.1613,-5.0882 -18.7421,-11.19551 z m 23.5916,-26.91692 c 0.8997,-1.08407 9.8046,-7.19834 19.7888,-13.58727 36.3305,-23.24818 79.7433,-53.34515 86.0181,-59.63412 1.2614,-1.2643 6.0561,-5.4009 10.6549,-9.19245 31.4922,-25.9644 65.6292,-58.98663 89.9615,-87.02381 14.247,-16.4162 35.2593,-43.35031 41.8562,-53.65232 1.9632,-3.06584 6.0303,-9.25905 9.0381,-13.76268 15.8778,-23.77426 32.0791,-55.55897 45.9045,-90.05802 12.5203,-31.24253 13.8995,-35.46087 22.0982,-67.58798 12.0205,-47.10364 17.1311,-73.84278 19.0241,-99.53623 0.7665,-10.40432 2.0686,-24.24732 2.8934,-30.76225 1.5527,-12.26274 3.5607,-195.09931 2.1427,-195.09931 -2.5924,0 -44.5584,-5.69887 -45.2896,-6.15022 -0.4901,-0.30254 -6.8487,-1.55027 -14.1301,-2.77274 -33.5009,-5.62444 -85.9213,-19.11039 -122.6338,-31.5494 -46.2216,-15.66092 -104.5849,-41.38202 -137.2663,-60.49418 -5.3652,-3.1376 -15.0922,-8.43145 -21.6155,-11.7641 l -11.8605,-6.05938 -10.4365,5.1528 c -5.7401,2.83404 -13.5269,7.03323 -17.3039,9.33153 -9.8183,5.9744 -38.3744,20.55034 -55.3056,28.22973 -7.96028,3.61053 -16.35458,7.41995 -18.65396,8.46539 -9.10867,4.14134 -21.64442,9.27628 -36.92951,15.12719 -67.55853,25.86041 -117.78392,38.73464 -200.67358,51.43849 l -11.84531,1.81544 -1.1045,18.07948 c -1.46056,23.90792 -0.19573,165.46136 1.66599,186.44961 1.60476,18.09143 4.53818,40.43335 7.99223,60.87157 2.06624,12.2263 3.23125,18.15527 8.07794,41.11021 4.29157,20.32578 20.30342,71.57541 26.6246,85.21817 1.11905,2.41522 2.03465,4.80127 2.03465,5.30233 0,0.50107 1.31226,3.85537 2.91614,7.454 1.60388,3.59865 4.45819,9.99207 6.3429,14.20761 18.8799,42.22861 48.40094,87.49857 86.87921,133.22764 12.81691,15.23211 52.25037,54.38078 68.30259,67.80929 6.51493,5.45007 14.98084,12.83723 18.81315,16.41589 3.83231,3.57867 9.88317,8.63582 13.44637,11.23813 3.5632,2.6023 8.19176,5.98566 10.28571,7.51858 19.16528,14.03044 49.18638,34.95479 59.61218,41.54908 7.0465,4.45692 18.4558,11.78897 25.3539,16.29345 13.5961,8.87823 14.8612,9.34427 17.3206,6.38085 z m -259.06464,-263.155 c -9.73195,-17.65633 -20.08861,-38.48261 -26.50741,-53.30393 -3.98325,-9.19754 -8.06994,-18.60411 -9.08152,-20.90349 -2.10329,-4.78089 -12.86236,-37.02884 -17.20293,-51.56197 -7.87968,-26.38285 -15.50927,-64.26378 -20.62981,-102.42714 -3.54208,-26.39914 -3.66417,-29.76522 -4.27873,-117.96619 l -0.63261,-90.79165 3.95909,-0.83201 c 2.1775,-0.4576 11.7979,-2.10948 21.37867,-3.67086 28.80194,-4.69384 65.04401,-13.18053 98.94322,-23.16923 6.51493,-1.91968 14.98084,-4.32559 18.81315,-5.34647 24.05636,-6.40836 69.13786,-23.38921 102.17598,-38.48663 4.84384,-2.21349 9.12054,-4.02454 9.50364,-4.02454 0.9849,0 56.6441,-27.91346 58.3355,-29.25564 0.7665,-0.6082 3.902,-2.48878 6.9678,-4.17908 3.0659,-1.6903 7.5286,-4.26492 9.9172,-5.72138 4.2433,-2.58734 4.4192,-2.58837 7.6646,-0.0446 1.827,1.43192 10.5334,6.47607 19.3477,11.20924 8.8144,4.73316 16.9667,9.19408 18.1164,9.91316 2.6275,1.64334 46.1039,22.25902 46.9421,22.25902 0.3398,0 3.8699,1.48363 7.8447,3.29695 48.1135,21.94955 124.025,45.50248 193.268,59.96493 8.7632,1.83031 39.8497,6.41645 43.493,6.41645 0.6057,0 1.1012,27.84322 1.1012,61.87383 v 61.87382 l -10.8002,2.33441 c -17.9257,3.87456 -51.8637,14.84832 -79.7817,25.79714 -4.2155,1.65326 -11.1136,4.17884 -15.3292,5.61241 -7.1937,2.44637 -17.974,6.93496 -55.0459,22.91938 -28.0546,12.09642 -80.0709,37.79124 -112.6084,55.62592 -24.5369,13.44934 -59.6196,33.59825 -72.0391,41.37406 -4.982,3.11919 -14.075,8.73603 -20.2067,12.48187 -14.8538,9.07412 -37.6305,23.60678 -43.0318,27.45637 -2.3922,1.70497 -5.6037,3.72988 -7.1366,4.49978 -1.533,0.7699 -14.07505,9.25377 -27.87136,18.85305 -13.79631,9.59926 -29.47393,20.47304 -34.83916,24.16394 -23.34865,16.06223 -56.99967,40.93999 -87.51803,64.70091 -10.58269,8.23946 -19.40439,14.98084 -19.60379,14.98084 -0.19937,0 -1.83153,-2.66519 -3.627,-5.92265 z m 617.29554,-357.0837 c 2.0846,-2.51177 0.8937,-6.28879 -1.9829,-6.28879 -3.1292,0 -5.7793,5.59839 -3.3722,7.12372 2.6198,1.66005 3.3832,1.54102 5.3551,-0.83493 z M 728.25015,312.257 c 0,-0.76647 -0.90364,-1.39357 -2.0081,-1.39357 -1.10446,0 -2.39568,0.6271 -2.86938,1.39357 -0.4737,0.76646 0.42995,1.39356 2.00811,1.39356 1.57815,0 2.86937,-0.6271 2.86937,-1.39356 z"
         id="path2100" />
    </g>
  </g>
</svg>
